<?xml version="1.0" encoding="UTF-8"?>
<svg width="342px" height="388px" viewBox="0 0 342 388" version="1.1" xmlns="http://www.w3.org/2000/svg" xmlns:xlink="http://www.w3.org/1999/xlink">
    <!-- Generator: Sketch 3.8.3 (29802) - http://www.bohemiancoding.com/sketch -->
    <title>CSS.3</title>
    <desc>Created with Sketch.</desc>
    <defs></defs>
    <g id="Page-1" stroke="none" stroke-width="1" fill="none" fill-rule="evenodd">
        <g id="CSS.3">
            <g id="#0170baff" fill="#0170BA">
                <path d="M0,0.46 C113.92,0.45 227.83,0.44 341.75,0.46 C335.48,71.31 329.31,142.16 322.78,212.99 C318.9,258.26 314.9,303.53 310.68,348.77 C286.37,355.21 262.3,362.55 238,369.02 C215.68,375.57 193.18,381.5 170.85,388 L170.19,388 C148.94,381.68 127.48,376.12 106.23,369.8 C81.15,363.04 56.29,355.5 31.2,348.77 C27.93,314.86 24.98,280.93 22.07,247 C16.58,184.31 10.61,121.66 5.33,58.96 C3.5,40.09 2.19,21.16 0,2.33 L0,0.46 L0,0.46 Z M171.41,28.41 C171.17,42.02 171.59,55.64 171.17,69.24 C132.09,69.1 93,69.21 53.92,69.25 C54.59,82.46 56.36,95.58 58.18,108.68 C94.54,110.03 130.95,108.63 167.31,109.72 C135.5,123.99 103.3,137.43 71.35,151.4 C68.61,152.62 65.68,153.54 63.23,155.32 C63.5,169.83 65.84,184.26 66.87,198.74 C86.25,198.67 105.62,198.36 125,198.33 C140.53,198.25 156.07,198.56 171.6,198.22 C170.86,222.08 171.83,245.97 171.1,269.83 C160.65,268.28 150.33,265.95 139.92,264.1 C131.71,262.31 123.3,261.38 115.21,259.03 C114.06,247.58 113.26,236.09 112.24,224.63 C109.9,223.91 107.42,223.98 105,223.94 C93.26,224.01 81.51,223.9 69.76,224.08 C70.91,246.11 72.89,268.11 76.26,289.93 C87.84,292.95 99.44,295.91 111,299.06 C128.71,303.88 146.64,307.89 164.38,312.63 C166.49,313.08 168.62,313.86 170.81,313.68 C171.99,328.17 171.08,342.75 171.3,357.28 C175.39,356.62 179.41,355.61 183.36,354.39 C216.94,345.27 250.48,335.98 284.04,326.77 C285.71,313.57 286.49,300.28 287.81,287.05 C291.3,246.83 294.82,206.61 298.48,166.4 C302.77,120.4 306.48,74.35 310.8,28.35 C264.33,28.39 217.87,28.26 171.41,28.41 L171.41,28.41 Z" id="Shape"></path>
            </g>
            <g id="#29a9dfff" transform="translate(170.000000, 28.000000)" fill="#29A9DF">
                <path d="M1.41,0.41 C47.87,0.26 94.33,0.39 140.8,0.35 C136.48,46.35 132.77,92.4 128.48,138.4 C124.82,178.61 121.3,218.83 117.81,259.05 C116.49,272.28 115.71,285.57 114.04,298.77 C80.48,307.98 46.94,317.27 13.36,326.39 C9.41,327.61 5.39,328.62 1.3,329.28 C1.08,314.75 1.99,300.17 0.81,285.68 C1.11,285.62 1.72,285.5 2.02,285.44 C33.25,277.6 64.27,268.97 95.43,260.85 C99.37,216.65 103.74,172.47 106.51,128.18 C80.01,128.32 53.5,128.24 27,128.35 C23.14,128.37 19.28,128.35 15.44,128.07 C29.7,120.73 44.7,114.91 59.34,108.36 C73.39,101.99 87.61,96.02 101.71,89.77 C104.43,88.52 107.33,87.48 109.72,85.62 C110.66,82.17 110.61,78.56 110.98,75.03 C111.79,63.83 113.23,52.69 113.77,41.48 C76.24,41.18 38.71,41.44 1.17,41.24 C1.59,27.64 1.17,14.02 1.41,0.41 L1.41,0.41 Z" id="Shape"></path>
                <path d="M1.6,170.22 C19.72,169.91 37.85,170.4 55.98,170.28 C54.97,188.81 53.43,207.31 52.47,225.84 C41.36,229.47 30.08,232.54 18.88,235.9 C12.91,237.72 6.78,239.16 1.1,241.83 C1.83,217.97 0.86,194.08 1.6,170.22 L1.6,170.22 Z" id="Shape"></path>
            </g>
            <g id="#cfcfcfff" transform="translate(53.000000, 69.000000)" fill="#CFCFCF">
                <path d="M0.92,0.25 C40,0.21 79.09,0.1 118.17,0.24 C118.68,43.24 118.04,86.24 118.6,129.22 C103.07,129.56 87.53,129.25 72,129.33 C52.62,129.36 33.25,129.67 13.87,129.74 C12.84,115.26 10.5,100.83 10.23,86.32 C12.68,84.54 15.61,83.62 18.35,82.4 C50.3,68.43 82.5,54.99 114.31,40.72 C77.95,39.63 41.54,41.03 5.18,39.68 C3.36,26.58 1.59,13.46 0.92,0.25 L0.92,0.25 Z" id="Shape"></path>
                <path d="M16.76,155.08 C28.51,154.9 40.26,155.01 52,154.94 C54.42,154.98 56.9,154.91 59.24,155.63 C60.26,167.09 61.06,178.58 62.21,190.03 C70.3,192.38 78.71,193.31 86.92,195.1 C97.33,196.95 107.65,199.28 118.1,200.83 C119.1,215.35 117.35,229.97 119.02,244.44 C118.72,244.5 118.11,244.62 117.81,244.68 C115.62,244.86 113.49,244.08 111.38,243.63 C93.64,238.89 75.71,234.88 58,230.06 C46.44,226.91 34.84,223.95 23.26,220.93 C19.89,199.11 17.91,177.11 16.76,155.08 L16.76,155.08 Z" id="Shape"></path>
            </g>
            <g id="#ffffffff" transform="translate(171.000000, 69.000000)" fill="#FFFFFF">
                <path d="M0.17,0.24 C37.71,0.44 75.24,0.18 112.77,0.48 C112.23,11.69 110.79,22.83 109.98,34.03 C109.61,37.56 109.66,41.17 108.72,44.62 C106.33,46.48 103.43,47.52 100.71,48.77 C86.61,55.02 72.39,60.99 58.34,67.36 C43.7,73.91 28.7,79.73 14.44,87.07 C18.28,87.35 22.14,87.37 26,87.35 C52.5,87.24 79.01,87.32 105.51,87.18 C102.74,131.47 98.37,175.65 94.43,219.85 C63.27,227.97 32.25,236.6 1.02,244.44 C-0.65,229.97 1.1,215.35 0.1,200.83 C5.78,198.16 11.91,196.72 17.88,194.9 C29.08,191.54 40.36,188.47 51.47,184.84 C52.43,166.31 53.97,147.81 54.98,129.28 C36.85,129.4 18.72,128.91 0.6,129.22 C0.04,86.24 0.68,43.24 0.17,0.24 L0.17,0.24 Z" id="Shape"></path>
            </g>
        </g>
    </g>
</svg>