<?xml version="1.0" encoding="UTF-8"?>
<svg width="963px" height="429px" viewBox="0 0 963 429" version="1.1" xmlns="http://www.w3.org/2000/svg" xmlns:xlink="http://www.w3.org/1999/xlink">
    <!-- Generator: Sketch 3.8.3 (29802) - http://www.bohemiancoding.com/sketch -->
    <title>less</title>
    <desc>Created with Sketch.</desc>
    <defs>
        <linearGradient x1="50%" y1="-4.71911798e-06%" x2="50%" y2="100%" id="linearGradient-1">
            <stop stop-color="#2A4F84" offset="14.97%"></stop>
            <stop stop-color="#294E82" offset="38.839999%"></stop>
            <stop stop-color="#172E4E" offset="100%"></stop>
        </linearGradient>
    </defs>
    <g id="Page-1" stroke="none" stroke-width="1" fill="none" fill-rule="evenodd">
        <g id="less" transform="translate(-117.000000, -384.000000)">
            <g id="layer1" transform="translate(0.531250, 0.156250)">
                <rect id="Rectangle-1" x="0.46875" y="0.84375" width="1195" height="1195"></rect>
                <path d="M1026.7625,728.5338 C1026.7625,773.4918 989.9785,810.2758 945.0205,810.2758 L257.9705,810.2758 C213.0125,810.2758 176.2285,773.4918 176.2285,728.5338 L176.2285,468.20979 C176.2285,423.25179 213.0125,386.46779 257.9705,386.46779 L945.0205,386.46779 C989.9785,386.46779 1026.7625,423.25179 1026.7625,468.20979 L1026.7625,728.5338 L1026.7625,728.5338 Z" id="path19" fill="url(#linearGradient-1)"></path>
                <path d="M883.0385,592.8108 C918.9475,605.3738 936.8945,626.8988 936.8945,657.3538 C936.8945,677.3998 929.4515,693.3108 914.5985,705.0788 C899.7605,716.8548 878.5935,724.1628 851.0415,724.1628 C823.4895,724.1628 798.0045,716.1798 774.5315,703.0748 C774.7855,696.1248 776.6225,688.4998 779.9945,680.2228 C783.3665,671.9458 787.3575,665.3698 791.9305,660.5668 C813.5035,671.7778 832.2765,677.3928 848.2115,677.3928 C855.7425,677.3928 861.5695,676.1288 865.6255,673.5838 C869.6885,671.0478 871.7085,667.6438 871.7085,663.3668 C871.7085,655.3278 865.4825,649.3158 853.0705,645.3088 L830.7745,636.8878 C797.0445,624.5948 780.1785,604.5648 780.1785,576.7418 C780.1785,556.4258 787.2635,540.3238 801.4335,528.4118 C815.6035,516.5168 834.7025,506.2748 858.7165,506.2748 C870.5965,506.2748 883.6765,507.9448 897.9885,511.2848 C912.2855,514.6328 924.0305,522.8788 933.2065,527.4098 C933.7475,534.8998 932.2445,543.1218 928.7545,552.0748 C925.2395,561.0358 920.9305,567.3808 915.7855,571.1268 C893.1005,560.9648 874.2235,555.8838 859.0995,555.8838 C853.6845,555.8838 849.6055,557.0848 846.7425,559.5018 C843.9115,561.9118 842.5195,564.9798 842.5195,568.7258 C842.5195,575.1428 847.6405,580.2158 857.9055,583.9608 L883.0385,592.8108 L883.0385,592.8108 Z" id="path21" fill="#F6F6F6"></path>
                <path d="M703.6835,592.8108 C739.5925,605.3738 757.5315,626.8988 757.5315,657.3538 C757.5315,677.3998 750.0885,693.3108 735.2595,705.0788 C720.4065,716.8548 699.2315,724.1628 671.6875,724.1628 C644.1595,724.1628 618.6425,716.1798 595.1775,703.0748 C595.4315,696.1248 597.2685,688.4998 600.6475,680.2228 C604.0195,671.9458 607.9945,665.3698 612.5835,660.5668 C634.1805,671.7778 652.9455,677.3928 668.8725,677.3928 C676.4105,677.3928 682.2385,676.1288 686.2785,673.5838 C690.3265,671.0478 692.3615,667.6438 692.3615,663.3668 C692.3615,655.3278 686.1355,649.3158 673.7235,645.3088 L651.4425,636.8878 C617.7045,624.5948 600.8315,604.5648 600.8315,576.7418 C600.8315,556.4258 607.9165,540.3238 622.1015,528.4118 C636.2635,516.5168 655.3545,506.2748 679.3685,506.2748 C691.2405,506.2748 704.3525,507.9448 718.6335,511.2848 C732.9465,514.6328 744.6755,522.8788 753.8585,527.4098 C754.3995,534.8998 752.8965,543.1218 749.4065,552.0748 C745.8995,561.0358 741.5825,567.3808 736.4455,571.1268 C713.7515,560.9648 694.8745,555.8838 679.7435,555.8838 C674.3365,555.8838 670.2415,557.0848 667.3945,559.5018 C664.5715,561.9118 663.1645,564.9798 663.1645,568.7258 C663.1645,575.1428 668.2925,580.2158 678.5585,583.9608 L703.6835,592.8108 L703.6835,592.8108 Z" id="path23" fill="#F6F6F6"></path>
                <path d="M572.8885,595.6408 C572.8885,583.3478 570.9325,571.9848 567.0205,561.5518 C563.1165,551.1198 557.5105,542.1738 550.2265,534.6838 C542.9345,527.1938 534.1005,521.3168 523.7155,517.0388 C513.3145,512.7688 501.6415,506.3278 488.6885,506.3278 C473.3015,506.3278 459.8725,513.2938 448.4065,518.6448 C436.9405,523.9888 427.4935,531.3358 420.0745,540.6948 C412.6395,550.0608 407.1055,561.0828 403.4635,573.7808 C399.8215,586.4798 398.0005,600.3148 398.0005,615.2798 C398.0005,630.7698 399.4795,645.0978 402.4535,658.1938 C405.4195,671.2738 410.4835,682.6288 417.6335,692.2668 C424.7895,701.8878 434.1005,709.3708 445.5745,714.7058 C457.0485,720.0498 471.2895,724.1528 488.2905,724.1528 C519.5955,724.1528 546.0425,715.0878 567.6385,699.8608 C565.4995,684.3708 559.9815,672.0538 551.1155,662.9648 C540.0865,667.1068 530.3295,670.0728 521.8695,671.8948 C513.4015,673.6928 505.9345,674.5988 499.4865,674.5988 C486.5805,674.5988 477.2935,671.3148 471.6565,664.6838 C466.0255,658.0758 462.9365,650.2598 462.3895,638.3878 L567.6545,638.3878 C571.1315,627.1448 572.8885,611.9498 572.8885,595.6408 L572.8885,595.6408 Z M461.9885,598.4168 C462.7905,584.7718 465.2805,570.1728 469.4235,564.1618 C473.5745,558.1428 479.9275,555.1368 488.5065,555.1368 C497.3415,555.1368 503.9725,558.3338 508.3855,564.7508 C512.8075,571.1678 515.0165,584.0968 515.0165,593.9878 L515.0245,598.4168 L461.9885,598.4168 L461.9885,598.4168 L461.9885,598.4168 Z" id="path25" fill="#F6F6F6"></path>
                <path d="M1047.9545,625.0938 C1036.5125,635.0888 1029.8725,649.4728 1029.8725,668.2788 L1029.8725,738.3158 C1029.8725,761.5978 1022.7155,779.3058 1006.5505,791.4798 C990.4005,803.6378 971.5715,809.6568 950.0785,810.2368 L937.3405,810.1408 L937.3405,775.2418 C948.5685,771.9658 953.1795,768.1578 957.6485,763.8318 C965.7435,756.5168 971.9455,744.6128 971.9455,728.0818 L971.9455,671.5388 C972.2475,652.3198 973.7265,637.2598 980.7235,626.3818 C987.7455,615.5038 1001.4135,605.9938 1021.7295,597.7798 C999.2905,587.5068 984.2215,574.0918 976.5405,557.5448 C972.0245,547.7168 971.9365,534.4538 971.9365,517.7708 L971.9365,465.91879 C971.9365,448.79079 966.3305,436.79279 959.4365,429.94579 C954.9525,425.47679 949.7355,421.90679 937.3235,419.21179 L937.3235,386.45079 C952.5035,386.60979 960.1685,386.43579 969.0105,386.45079 C982.6235,386.33979 994.0265,393.78279 1003.9495,401.53479 C1014.7565,410.03479 1022.4365,421.52579 1026.9375,435.98879 C1029.4975,444.34579 1029.8635,452.32979 1029.8635,459.93079 L1029.8635,519.9018 C1029.8635,541.0838 1036.1215,556.8288 1046.8165,567.1098 C1052.8445,573.0738 1061.3525,578.5278 1075.9595,583.4508 L1075.9595,610.5418 C1063.0155,614.1208 1054.8885,618.9708 1047.9545,625.0938 L1047.9545,625.0938 Z" id="path27" stroke="#404040" stroke-width="5.15089989" fill="#F6F6F6"></path>
                <path d="M242.7555,386.46879 L242.7555,386.51579 C238.4065,386.49179 234.4695,386.47579 231.3215,386.48379 C217.7005,386.36479 206.2985,393.80779 196.3835,401.56779 C185.5615,410.06779 176.2985,421.16079 173.3965,436.02179 C171.7425,444.73679 172.0925,452.35379 172.0925,459.96379 L172.0925,519.9348 C172.0925,541.1098 164.2125,556.8458 153.5255,567.1438 C147.5055,573.1068 134.6555,578.5528 120.0405,583.4748 L120.0405,610.5648 C132.9935,614.1358 145.4625,618.9698 152.3795,625.1088 C163.8295,635.1118 172.0825,649.5048 172.0825,668.3088 L172.0825,738.3458 C172.0825,761.6128 177.6335,779.3368 193.7825,791.4938 C209.9325,803.6438 228.7535,809.6868 250.2465,810.2748 L264.6305,810.1788 L264.6305,775.2558 C253.4105,771.9718 247.1775,768.1628 242.6845,763.8528 C234.5975,756.5288 230.0175,744.6338 230.0175,728.1108 L230.0175,671.5598 C229.7075,652.3258 226.6065,637.2808 219.6015,626.3948 C212.5965,615.5328 198.9275,606.0068 178.5875,597.8008 C201.0355,587.5198 216.0955,574.1128 223.7765,557.5738 C228.3015,547.7378 230.0185,534.4748 230.0185,517.7928 L230.0185,465.94079 C230.0185,448.81279 233.9935,436.81479 240.8805,429.96079 C244.6175,426.23979 251.2645,423.17779 260.4975,420.69779 L275.0965,420.79979 L275.0965,386.46579 L242.7575,386.46579 L242.7575,386.46879 L242.7555,386.46879 L242.7555,386.46879 Z" id="path29" stroke="#404040" stroke-width="5.15089989" fill="#F6F6F6"></path>
                <path d="M377.3525,670.6078 L366.4195,670.6078 C354.5325,670.6078 350.0555,664.3578 350.0555,651.8028 L350.0555,421.05779 C350.0555,407.18279 346.0485,397.44179 340.9185,391.82879 C335.7895,386.23079 326.8845,386.28679 314.2015,386.28679 L289.5115,386.28679 L286.6015,386.23079 L286.6015,386.46879 L286.5775,420.81179 L286.5775,662.9678 C286.5775,682.2258 290.9035,696.3168 298.5995,705.2858 C306.3045,714.2388 319.3215,718.7078 337.6735,718.7078 C350.3645,718.7078 364.8045,717.3718 380.9935,714.6918 C381.8045,711.9878 382.2105,706.1998 382.2105,697.3178 C382.2105,688.4118 380.5895,679.5298 377.3525,670.6078 L377.3525,670.6078 Z" id="path31" fill="#F6F6F6"></path>
            </g>
        </g>
    </g>
</svg>