<?xml version="1.0" encoding="UTF-8" standalone="no"?>
<svg width="121" xmlns="http://www.w3.org/2000/svg" viewBox="0 0 121 44" height="44">
 <g fill-rule="evenodd" fill="#ffff">
  <path d="m15.58 14.768c0-1.699 1.316-3.084 2.984-3.084 1.667 0 2.984 1.385 2.984 3.084v21.36c0 5.006-3.95 8.938-8.865 8.938h-2.107c-1.624 0-2.984-1.385-2.984-3.038a2.976 2.976 0 0 1 2.984 -2.995h2.107c1.624 0 2.896-1.25 2.896-2.904v-1.117a10.27 10.27 0 0 1 -4.695 1.117c-6.014 0-10.884-4.96-10.884-11.039v-10.322c0-1.744 1.316-3.084 2.984-3.084 1.667 0 3.028 1.34 3.028 3.084v10.322c0 2.726 2.238 4.827 4.872 4.827 2.633 0 4.695-2.1 4.695-4.827v-10.322m77.418 14.217c1.677 0 3.14 1.367 3.14 3.076 0 1.666-1.463 2.99-3.14 2.99h-15.01c-0.688 0-1.247-0.042-1.763-0.384-1.893-1.41-1.807-3.247-0.99-4.357l11.269-12.645h-8.817c-1.635 0-3.097-1.24-3.097-2.905 0-1.624 1.462-3.076 3.097-3.076h15.311c1.677 0 2.925 1.452 2.925 3.076 0 0.982-0.344 1.41-1.161 2.35l-10.281 11.874h8.516m22.184-6.079c0-3.497-2.697-6.096-5.78-6.096-3.125 0-5.823 2.6-5.823 6.096 0 3.227 2.698 5.826 5.823 5.826 3.083 0 5.78-2.6 5.78-5.826zm0-19.902c0-1.703 1.37-3.003 2.954-3.003 1.67 0 2.87 1.3 2.87 3.003v28.956c0 1.658-1.199 3.093-2.868 3.093-1.156 0-2.227-0.763-2.698-1.838a10.835 10.835 0 0 1 -6.037 1.838c-6.422 0-11.602-5.648-11.602-12.147 0-6.724 5.18-12.372 11.602-12.372 2.098 0 4.068 0.628 5.78 1.659v-9.189zm-48.887 9.746c-4.345-2.018-9.258-1.137-12.756 2.377-3.967 3.986-7.86 8.05-11.828 12.036-2.272 2.282-5.552 2.238-7.668-0.002-1.995-2.112-1.992-5.533 0.007-7.639 2.124-2.238 5.37-2.252 7.67 0.01 0.148 0.146 0.294 0.295 0.437 0.444 0.275-0.251 0.647-0.411 1.12-0.415 0.282-0.304 0.689-0.505 1.222-0.505 0.8 0 1.316 0.447 1.553 1.026l1.102-1.027c-1.341-0.435-1.495-2.406-0.466-3.197-0.616-0.609-1.235-1.193-1.898-1.72-5.123-4.078-12.581-2.868-16.245 2.567-3.69 5.474-2.184 12.967 3.318 16.507 4.422 2.846 10.048 2.304 13.894-1.495 4-3.95 7.896-8.013 11.832-12.032 1.356-1.385 2.955-2.106 4.878-1.751 2.323 0.43 4.09 2.291 4.413 4.529 0.34 2.353-0.77 4.63-2.787 5.727-2.115 1.15-4.44 0.798-6.286-0.976l-0.23-0.223c-0.174 0.065-0.372 0.1-0.581 0.117-0.338 0.29-0.788 0.475-1.354 0.475-0.458 0-0.837-0.124-1.144-0.322a1.664 1.664 0 0 1 -0.514 0.026c0.153 0.71-0.068 1.52-0.66 1.948a1.944 1.944 0 0 1 -0.042 0.17c0.16 0.562 0.08 1.206-0.244 1.683 0.669 0.647 1.353 1.264 2.098 1.79 3.646 2.577 7.609 2.876 11.567 0.83 3.834-1.984 5.966-5.302 6.211-9.709 0.274-4.936-2.353-9.268-6.619-11.249"/>
  <path d="m53.853 29.16c0.09 1.665 0.169 3.106 0.245 4.547 0.04 0.77-0.389 1.294-1.094 1.341-0.7 0.048-1.215-0.432-1.265-1.182-0.117-1.738-0.232-3.477-0.347-5.216-0.07-1.061 0.296-1.47 1.392-1.55l5.507-0.39c0.749-0.052 1.339 0.381 1.378 1.01 0.041 0.66-0.473 1.2-1.238 1.24-1.51 0.08-3.022 0.134-4.578 0.2m-9.926-9.957l-0.315-4.501c-0.052-0.763 0.37-1.287 1.075-1.344 0.7-0.057 1.222 0.411 1.284 1.154 0.144 1.72 0.286 3.442 0.428 5.163 0.086 1.05-0.274 1.461-1.37 1.554-1.836 0.157-3.672 0.31-5.507 0.463-0.75 0.063-1.347-0.359-1.395-0.981-0.052-0.654 0.455-1.196 1.22-1.246 1.511-0.1 3.024-0.174 4.58-0.262"/>
 </g>
</svg>
